<svg xmlns="http://www.w3.org/2000/svg" xmlns:xlink="http://www.w3.org/1999/xlink" width="500" zoomAndPan="magnify" viewBox="0 0 375 374.999991" height="500" preserveAspectRatio="xMidYMid meet" version="1.0"><defs><clipPath id="54e80332a1"><path d="M 0 89.902344 L 338 89.902344 L 338 366.652344 L 0 366.652344 Z M 0 89.902344 " clip-rule="nonzero"/></clipPath><clipPath id="ee972eefbe"><path d="M 126.425781 8.503906 L 374.675781 8.503906 L 374.675781 278.503906 L 126.425781 278.503906 Z M 126.425781 8.503906 " clip-rule="nonzero"/></clipPath></defs><g clip-path="url(#54e80332a1)"><path fill="#7c966d" d="M 286.15625 366.488281 C 284.085938 366.292969 282.402344 366.101562 280.65625 366.035156 C 278.390625 365.90625 276.191406 365.324219 274.054688 364.871094 C 273.730469 364.804688 273.410156 364.675781 273.148438 364.546875 C 271.144531 363.445312 269.007812 362.863281 266.808594 362.28125 C 265.191406 361.828125 263.507812 361.3125 261.953125 360.664062 C 259.300781 359.691406 256.972656 358.203125 254.640625 356.652344 C 253.152344 355.617188 251.730469 354.453125 250.242188 353.414062 C 248.6875 352.316406 247.070312 351.214844 245.386719 350.308594 C 238.785156 346.554688 232.507812 342.285156 226.039062 338.273438 C 223.96875 336.980469 221.832031 335.75 219.632812 334.585938 C 216.785156 333.097656 214.066406 331.414062 211.285156 329.730469 C 210.570312 329.277344 209.859375 328.761719 209.082031 328.4375 C 205.523438 326.882812 202.222656 324.878906 198.859375 323 C 198.148438 322.546875 197.371094 322.160156 196.59375 321.769531 C 194.070312 320.410156 191.351562 319.441406 188.570312 318.535156 C 185.59375 317.566406 182.679688 316.527344 179.769531 315.492188 C 177.308594 314.652344 174.785156 314.136719 172.195312 314.070312 C 171.742188 314.070312 171.355469 314.070312 170.902344 314.003906 C 169.929688 313.941406 168.960938 313.683594 168.054688 313.746094 C 166.566406 313.8125 165.078125 314.070312 163.589844 314.265625 C 163.070312 314.328125 162.554688 314.457031 162.035156 314.523438 C 160.675781 314.652344 159.253906 314.265625 157.894531 314.523438 C 156.664062 314.78125 155.371094 314.847656 154.078125 314.910156 C 152.589844 314.976562 151.101562 315.171875 149.613281 315.429688 C 148.121094 315.6875 146.699219 316.011719 145.144531 315.882812 C 144.757812 315.882812 144.304688 316.011719 143.917969 316.207031 C 141.070312 317.175781 138.222656 317.953125 135.308594 318.730469 C 132.332031 319.507812 129.421875 320.605469 126.507812 321.707031 C 123.984375 322.675781 121.460938 323.582031 118.9375 324.359375 C 115.765625 325.332031 112.726562 326.6875 109.746094 328.113281 C 109.488281 328.242188 109.101562 328.371094 108.972656 328.628906 C 107.484375 330.636719 105.023438 331.089844 103.019531 332.253906 C 102.113281 332.773438 101.078125 333.160156 100.105469 333.613281 C 97.710938 334.84375 95.316406 336.007812 92.664062 336.460938 C 92.144531 336.527344 91.628906 336.71875 91.109375 336.914062 C 89.945312 337.433594 88.714844 337.820312 87.421875 338.078125 C 86.773438 338.207031 86.128906 338.402344 85.609375 338.660156 C 83.019531 340.019531 80.171875 340.539062 77.519531 341.636719 C 76.875 341.898438 76.097656 342.027344 75.320312 342.089844 C 73.378906 342.21875 71.503906 342.609375 69.691406 343.191406 C 67.8125 343.773438 65.9375 343.902344 63.996094 343.578125 C 63.023438 343.386719 62.117188 343.191406 61.210938 342.804688 C 59.335938 342.089844 57.460938 341.316406 55.453125 340.863281 C 53.964844 340.539062 52.734375 339.632812 51.699219 338.53125 C 50.46875 337.300781 49.433594 335.941406 48.207031 334.777344 C 47.429688 334 47.039062 332.964844 46.328125 332.191406 C 45.550781 331.414062 44.644531 330.832031 44 330.054688 C 42.964844 328.695312 41.863281 327.402344 41.28125 325.71875 C 40.761719 324.230469 40.050781 322.742188 39.46875 321.253906 C 38.433594 318.730469 37.914062 316.078125 38.109375 313.421875 C 38.304688 310.574219 37.914062 307.859375 37.460938 305.140625 C 37.007812 302.488281 37.007812 299.769531 37.269531 297.113281 C 37.59375 293.621094 38.175781 290.125 38.5625 286.632812 C 39.082031 282.488281 40.246094 278.476562 41.539062 274.464844 C 41.992188 273.171875 42.574219 271.875 43.09375 270.582031 C 43.804688 268.707031 44.515625 266.765625 45.164062 264.886719 C 46.714844 260.359375 48.140625 255.761719 49.824219 251.234375 C 50.921875 248.257812 52.347656 245.34375 53.640625 242.433594 C 55.710938 237.96875 57.589844 233.4375 59.078125 228.710938 C 59.855469 226.253906 60.757812 223.859375 61.730469 221.464844 C 62.765625 218.875 63.347656 216.160156 63.671875 213.375 C 63.867188 211.5625 63.738281 209.75 63.152344 208.003906 C 62.636719 206.386719 62.183594 204.703125 61.730469 203.085938 C 61.148438 200.757812 60.242188 198.621094 59.402344 196.421875 C 59.078125 195.644531 58.625 194.867188 58.234375 194.15625 C 57.847656 193.507812 57.265625 193.054688 56.554688 192.730469 C 55.066406 192.148438 53.578125 191.503906 52.089844 190.921875 C 51.183594 190.597656 50.277344 190.207031 49.371094 190.015625 C 46.714844 189.496094 44.257812 188.589844 41.929688 187.101562 C 40.375 186.132812 38.757812 185.289062 36.945312 184.902344 C 35.457031 184.511719 34.164062 183.800781 32.933594 182.960938 C 31.445312 181.925781 29.957031 180.824219 28.53125 179.789062 C 27.300781 178.882812 26.074219 178.105469 24.648438 177.523438 C 23.355469 177.007812 22.125 176.359375 21.027344 175.453125 C 20.507812 175.066406 19.988281 174.742188 19.40625 174.417969 C 18.242188 173.835938 17.207031 173.125 16.171875 172.347656 C 14.8125 171.3125 13.582031 170.148438 12.160156 169.242188 C 11.640625 168.917969 11.1875 168.398438 10.734375 167.945312 C 7.4375 164.324219 4.910156 160.3125 3.421875 155.585938 C 2.0625 151.25 1.351562 146.851562 0.835938 142.386719 C 0.574219 140.054688 0.835938 137.660156 1.027344 135.332031 C 1.222656 133.648438 1.351562 131.902344 1.480469 130.21875 C 1.742188 126.984375 2.648438 123.875 3.683594 120.835938 C 3.941406 120.058594 4.457031 119.28125 4.847656 118.570312 C 5.753906 117.015625 6.789062 115.527344 7.695312 113.910156 C 8.664062 112.226562 9.828125 110.738281 11.253906 109.382812 C 13.648438 107.050781 16.042969 104.785156 18.566406 102.652344 C 19.085938 102.261719 19.601562 101.875 20.121094 101.550781 C 21.996094 100.515625 23.679688 99.222656 25.359375 97.863281 C 26.007812 97.34375 26.71875 96.828125 27.496094 96.503906 C 30.019531 95.273438 32.542969 94.238281 35.390625 93.851562 C 37.269531 93.589844 39.144531 93.074219 40.890625 92.167969 C 42.382812 91.390625 44.0625 90.871094 45.679688 90.355469 C 46.394531 90.160156 47.167969 90.097656 47.882812 90.03125 C 49.5625 89.96875 51.3125 89.96875 52.992188 89.96875 C 57.007812 89.902344 60.824219 90.742188 64.382812 92.75 C 64.640625 92.878906 64.964844 93.074219 65.289062 93.136719 C 67.683594 93.589844 69.5625 95.078125 71.503906 96.375 C 73.121094 97.472656 74.671875 98.507812 76.421875 99.414062 C 77.648438 100.0625 78.878906 100.773438 79.980469 101.617188 C 81.984375 103.167969 84.054688 104.722656 85.867188 106.597656 C 87.164062 108.023438 88.652344 109.316406 90.011719 110.609375 C 91.5 111.96875 92.921875 113.457031 94.085938 115.140625 C 95.511719 117.148438 97.453125 118.765625 99.070312 120.578125 C 100.429688 122.128906 101.789062 123.554688 103.082031 125.171875 C 106.316406 129.183594 108.90625 133.648438 110.652344 138.503906 C 111.6875 141.347656 113.175781 143.9375 114.796875 146.460938 C 115.3125 147.304688 115.894531 148.078125 116.542969 148.792969 C 118.289062 150.796875 119.777344 153.0625 121.203125 155.328125 C 122.5625 157.527344 123.789062 159.726562 125.539062 161.667969 C 126.703125 162.964844 127.933594 164.0625 129.421875 164.96875 C 133.304688 167.300781 137.316406 169.242188 141.585938 170.730469 C 144.824219 171.828125 147.992188 173.125 151.164062 174.417969 C 153.363281 175.324219 155.628906 175.972656 157.894531 176.554688 C 160.355469 177.199219 162.878906 177.71875 165.402344 178.234375 C 166.632812 178.496094 167.925781 178.753906 169.15625 179.078125 C 172.066406 179.789062 174.980469 180.371094 177.957031 180.824219 C 178.601562 180.890625 179.25 181.019531 179.832031 181.148438 C 183.910156 182.183594 188.050781 182.570312 192.191406 183.15625 C 195.234375 183.542969 198.40625 183.609375 201.511719 183.738281 C 203.839844 183.867188 206.234375 183.929688 208.566406 184.058594 C 210.378906 184.191406 212.1875 184.511719 214 184.773438 C 216.136719 185.03125 218.273438 185.355469 220.34375 185.550781 C 225.519531 186.132812 230.761719 186.714844 236.003906 187.101562 C 238.785156 187.296875 241.570312 187.425781 244.351562 187.8125 C 247.003906 188.136719 249.660156 188.65625 252.246094 189.238281 C 257.878906 190.597656 263.378906 192.410156 268.621094 194.804688 C 269.847656 195.386719 271.144531 195.96875 272.375 196.679688 C 275.21875 198.363281 278.066406 200.042969 280.722656 202.117188 C 282.921875 203.863281 284.863281 205.867188 286.480469 208.132812 C 287.320312 209.234375 288.164062 210.335938 288.875 211.5625 C 289.847656 213.246094 291.140625 214.671875 292.628906 215.898438 C 293.730469 216.804688 294.503906 217.96875 294.894531 219.328125 C 295.152344 220.363281 295.476562 221.398438 295.800781 222.4375 C 296.058594 223.277344 296.253906 224.117188 296.640625 224.828125 C 297.417969 226.382812 297.804688 228.066406 298.0625 229.75 C 298.195312 230.394531 298.257812 231.042969 298.453125 231.625 C 299.164062 233.5 299.746094 235.507812 300.71875 237.253906 C 302.078125 239.714844 303.175781 242.238281 304.339844 244.761719 C 305.441406 247.089844 306.605469 249.355469 308.484375 251.234375 C 308.675781 251.425781 308.871094 251.75 309.066406 251.945312 C 311.523438 254.402344 313.402344 257.25 315.277344 260.097656 C 316.3125 261.585938 317.476562 263.011719 318.382812 264.5625 C 321.75 270.519531 325.179688 276.472656 328.609375 282.359375 C 330.164062 285.078125 331.652344 287.796875 332.75 290.707031 C 333.074219 291.484375 333.398438 292.261719 333.785156 293.039062 C 335.402344 296.664062 336.632812 300.414062 336.761719 304.429688 C 337.476562 307.40625 337.085938 310.382812 337.34375 313.359375 C 337.023438 316.207031 337.410156 319.183594 336.179688 321.902344 C 335.921875 323.453125 335.597656 325.070312 335.339844 326.625 C 335.273438 327.140625 335.273438 327.726562 335.082031 328.175781 C 334.175781 330.570312 333.527344 333.097656 332.296875 335.359375 C 331.972656 335.941406 331.714844 336.527344 331.457031 337.109375 C 330.421875 339.375 329.0625 341.378906 327.25 343.125 C 325.761719 344.484375 324.339844 345.972656 322.914062 347.398438 C 322.007812 348.304688 321.167969 349.273438 320.324219 350.246094 C 318.707031 352.121094 316.832031 353.738281 315.085938 355.488281 C 314.761719 355.808594 314.4375 356.003906 314.046875 356.199219 C 312.300781 356.976562 310.617188 358.011719 308.9375 358.851562 C 307.1875 359.691406 305.507812 360.664062 303.824219 361.570312 C 303.046875 361.957031 302.269531 362.21875 301.429688 362.410156 C 300.394531 362.605469 299.359375 362.929688 298.324219 363.1875 C 295.734375 363.835938 293.144531 364.417969 290.492188 364.933594 C 288.808594 365.515625 287.191406 365.648438 286.15625 366.488281 Z M 305.117188 348.691406 C 305.894531 349.339844 306.605469 349.402344 307.382812 348.628906 C 309.066406 346.945312 310.8125 345.390625 312.429688 343.644531 C 313.402344 342.609375 314.371094 341.636719 315.40625 340.730469 C 316.183594 340.148438 316.894531 339.503906 317.609375 338.855469 C 319.550781 337.171875 321.167969 335.167969 322.398438 332.835938 C 323.496094 330.636719 324.53125 328.371094 324.984375 325.976562 C 325.308594 324.488281 325.695312 323.066406 325.957031 321.578125 C 326.667969 317.695312 327.054688 313.746094 326.410156 309.734375 C 326.28125 309.023438 326.214844 308.246094 326.214844 307.46875 C 325.890625 303.390625 324.855469 299.445312 323.042969 295.757812 C 321.296875 292.132812 319.484375 288.445312 317.285156 285.015625 C 315.535156 282.296875 313.855469 279.578125 312.367188 276.730469 C 310.359375 273.042969 308.09375 269.546875 305.636719 266.183594 C 304.730469 264.953125 303.886719 263.722656 302.984375 262.558594 C 301.882812 261.132812 300.652344 259.710938 299.488281 258.351562 C 298 256.605469 296.964844 254.597656 296.121094 252.527344 C 295.28125 250.585938 294.441406 248.578125 293.597656 246.636719 C 292.433594 243.855469 291.203125 241.136719 290.167969 238.355469 C 289.199219 235.832031 288.488281 233.308594 287.644531 230.71875 C 287.0625 228.972656 286.285156 227.355469 285.25 225.867188 C 282.921875 222.4375 280.589844 218.941406 278.328125 215.445312 C 275.609375 211.238281 271.984375 208.003906 267.714844 205.351562 C 266.613281 204.703125 265.449219 204.1875 264.542969 203.152344 C 264.15625 202.699219 263.507812 202.4375 262.925781 202.179688 C 262.277344 201.855469 261.5 201.664062 260.855469 201.339844 C 259.882812 200.886719 258.847656 200.5625 257.746094 200.628906 C 256.839844 200.691406 256.066406 200.367188 255.289062 200.042969 C 252.183594 198.878906 249.011719 197.910156 245.777344 197.132812 C 243.511719 196.550781 241.179688 196.03125 238.785156 196.160156 C 237.167969 196.226562 235.550781 196.226562 233.996094 196.03125 C 231.863281 195.773438 229.726562 195.773438 227.589844 195.644531 C 226.492188 195.578125 225.457031 195.578125 224.421875 195.449219 C 221.445312 194.933594 218.464844 194.933594 215.488281 194.933594 C 213.871094 194.933594 212.253906 194.933594 210.699219 194.671875 C 209.019531 194.414062 207.269531 194.285156 205.589844 194.414062 C 202.613281 194.671875 199.570312 194.351562 196.59375 194.804688 C 195.945312 194.867188 195.300781 194.804688 194.652344 194.738281 C 191.933594 194.285156 189.085938 194.480469 186.367188 193.898438 C 184.105469 193.960938 181.902344 193.507812 179.703125 193.121094 C 175.820312 192.472656 171.9375 191.695312 168.054688 190.855469 C 166.046875 190.402344 164.105469 189.753906 162.101562 189.496094 C 159.253906 189.109375 156.40625 188.394531 153.625 187.75 C 150.710938 187.039062 147.863281 186.195312 145.144531 184.902344 C 143.203125 183.996094 141.199219 183.285156 139.128906 182.703125 C 135.828125 181.730469 132.589844 180.566406 129.484375 179.140625 C 126.960938 177.976562 124.503906 176.683594 121.980469 175.453125 C 121.589844 175.257812 121.265625 175 120.878906 174.742188 C 117.382812 172.152344 114.472656 169.113281 112.273438 165.359375 C 111.042969 163.222656 109.878906 161.085938 108.324219 159.144531 C 107.222656 157.722656 106.125 156.234375 105.023438 154.808594 C 104.570312 154.226562 104.117188 153.582031 103.792969 152.933594 C 102.953125 151.1875 102.113281 149.4375 101.527344 147.625 C 100.363281 144.066406 98.8125 140.636719 97.0625 137.335938 C 96.15625 135.589844 95.121094 134.035156 93.761719 132.613281 C 91.628906 130.347656 89.492188 128.148438 87.421875 125.753906 C 85.222656 123.164062 82.828125 120.707031 80.238281 118.375 C 79.203125 117.46875 78.101562 116.5625 77.132812 115.59375 C 75.773438 114.167969 74.285156 113.003906 72.601562 112.035156 C 70.660156 110.871094 68.71875 109.703125 66.90625 108.476562 C 64.058594 106.535156 61.082031 104.980469 57.71875 104.140625 C 57.070312 104.011719 56.488281 103.75 55.839844 103.75 C 54.03125 103.6875 52.21875 103.6875 50.40625 103.75 C 49.109375 103.816406 47.882812 104.140625 46.78125 104.914062 C 46.199219 105.367188 45.488281 105.691406 44.773438 105.953125 C 42.445312 106.988281 40.117188 108.085938 37.59375 108.796875 C 36.75 108.992188 35.972656 109.316406 35.199219 109.640625 C 34.679688 109.835938 34.226562 110.09375 33.839844 110.417969 C 32.738281 111.257812 31.703125 112.226562 30.667969 113.132812 C 30.410156 113.328125 30.214844 113.652344 30.148438 113.910156 C 29.761719 114.945312 29.050781 115.722656 28.207031 116.371094 C 27.042969 117.339844 26.007812 118.441406 25.945312 120.058594 C 24.910156 122.710938 23.9375 125.429688 22.191406 127.824219 C 20.441406 130.21875 19.601562 133 19.535156 135.976562 C 19.472656 137.402344 19.148438 138.695312 18.824219 140.054688 C 18.632812 140.898438 18.308594 141.671875 18.4375 142.578125 C 18.5 143.097656 18.308594 143.613281 18.046875 144.132812 C 17.660156 144.972656 17.59375 145.878906 17.855469 146.65625 C 18.5 148.46875 18.4375 150.472656 19.214844 152.222656 C 19.34375 152.480469 19.472656 152.867188 19.40625 153.128906 C 19.277344 154.746094 19.988281 156.039062 20.765625 157.332031 C 21.15625 157.980469 21.476562 158.628906 21.738281 159.339844 C 22.320312 161.023438 23.417969 162.253906 24.910156 163.222656 C 28.078125 165.359375 31.25 167.558594 34.484375 169.695312 C 35.910156 170.664062 37.332031 171.507812 38.628906 172.734375 C 39.535156 173.640625 40.632812 174.289062 41.929688 174.613281 C 43.09375 174.871094 44.0625 175.519531 45.097656 176.101562 C 47.945312 177.847656 50.792969 179.464844 53.964844 180.5 C 54.933594 180.824219 55.90625 181.34375 56.8125 181.925781 C 58.171875 182.765625 59.59375 183.542969 61.019531 184.191406 C 62.894531 185.03125 64.449219 186.390625 65.679688 188.007812 C 67.359375 190.207031 68.589844 192.730469 69.5625 195.386719 C 70.660156 198.296875 71.113281 201.402344 72.601562 204.1875 C 72.730469 204.378906 72.730469 204.574219 72.796875 204.769531 C 73.183594 206.453125 73.636719 208.070312 73.832031 209.816406 C 74.027344 211.5 73.703125 213.179688 74.027344 214.929688 C 74.089844 215.253906 73.894531 215.574219 73.832031 215.835938 C 73.703125 216.222656 73.507812 216.675781 73.574219 217.0625 C 73.703125 218.683594 73.121094 220.234375 72.796875 221.789062 C 72.472656 223.277344 72.085938 224.699219 71.890625 226.1875 C 71.695312 227.808594 71.242188 229.359375 70.855469 230.914062 C 70.335938 232.855469 69.820312 234.859375 69.300781 236.800781 C 68.976562 238.160156 68.394531 239.457031 67.621094 240.621094 C 67.230469 241.136719 66.84375 241.65625 66.648438 242.238281 C 66.128906 243.984375 65.03125 245.472656 64.511719 247.222656 C 64.253906 248.257812 63.800781 249.226562 63.605469 250.261719 C 62.570312 251.6875 62.183594 253.367188 61.472656 254.921875 C 60.566406 256.992188 59.789062 259.0625 59.078125 261.199219 C 58.363281 263.140625 57.589844 264.953125 57.328125 267.023438 C 57.265625 267.410156 57.007812 267.800781 56.875 268.1875 C 55.90625 271.488281 54.480469 274.59375 53.769531 277.960938 C 53.445312 279.640625 52.929688 281.261719 52.410156 282.878906 C 51.765625 284.882812 51.050781 286.957031 50.988281 289.089844 C 50.988281 289.542969 50.859375 289.933594 50.730469 290.320312 C 50.015625 292.648438 49.5625 295.109375 49.304688 297.566406 C 48.980469 300.546875 48.59375 303.523438 49.5 306.5 C 49.695312 307.082031 49.695312 307.792969 49.695312 308.441406 C 49.824219 313.164062 50.40625 317.824219 51.765625 322.351562 C 52.023438 323.195312 52.21875 324.035156 52.152344 324.878906 C 52.089844 325.785156 52.410156 326.496094 52.800781 327.273438 C 53.1875 328.046875 53.316406 328.890625 54.03125 329.472656 C 54.546875 329.859375 54.933594 330.378906 55.324219 330.894531 C 55.839844 331.476562 56.421875 331.867188 57.199219 332.058594 C 58.949219 332.511719 60.628906 333.160156 62.3125 333.871094 C 64.449219 334.777344 66.648438 334.90625 68.914062 334.261719 C 70.984375 333.679688 73.054688 333.226562 75.125 332.578125 C 76.875 332.058594 78.621094 331.542969 80.304688 330.832031 C 82.890625 329.730469 85.480469 328.761719 88.070312 327.855469 C 92.859375 326.300781 97.515625 324.359375 101.980469 322.03125 C 106.382812 319.828125 110.785156 317.566406 115.441406 315.945312 C 115.832031 315.816406 116.21875 315.625 116.609375 315.429688 C 123.015625 312.644531 129.679688 310.640625 136.34375 308.761719 C 139.453125 307.921875 142.558594 307.144531 145.730469 306.5 C 148.058594 305.980469 150.324219 305.527344 152.71875 305.464844 C 155.371094 305.398438 158.023438 305.074219 160.675781 304.6875 C 162.488281 304.429688 164.300781 304.296875 166.113281 304.234375 C 169.996094 304.105469 173.8125 304.105469 177.632812 304.621094 C 179.25 304.816406 180.804688 305.140625 182.355469 305.59375 C 183.972656 306.109375 185.59375 306.757812 187.210938 307.210938 C 190.316406 307.988281 193.359375 309.085938 196.398438 310.058594 C 198.148438 310.574219 199.828125 311.289062 201.445312 312.0625 C 205.976562 314.265625 210.441406 316.59375 214.90625 318.859375 C 216.523438 319.699219 218.078125 320.605469 219.632812 321.578125 C 220.859375 322.289062 221.960938 323.066406 223.191406 323.777344 C 225.519531 325.070312 227.914062 326.234375 230.246094 327.660156 C 234.191406 330.054688 238.011719 332.578125 241.894531 335.039062 C 242.734375 335.554688 243.445312 336.136719 244.289062 336.65625 C 246.941406 338.273438 249.660156 339.761719 252.246094 341.445312 C 255.09375 343.320312 257.941406 345.261719 260.722656 347.203125 C 263.054688 348.820312 265.449219 350.117188 268.167969 350.890625 C 270.042969 351.410156 271.855469 351.925781 273.667969 352.574219 C 277.808594 354.0625 282.078125 355.035156 286.414062 355.941406 C 289.394531 356.585938 292.175781 355.941406 294.828125 354.644531 C 296.058594 354.0625 297.222656 353.15625 298.195312 352.25 C 300.394531 350.632812 302.59375 349.339844 305.117188 348.691406 Z M 305.117188 348.691406 " fill-opacity="1" fill-rule="nonzero"/></g><g clip-path="url(#ee972eefbe)"><path fill="#8eb676" d="M 257.851562 113.800781 C 259.109375 113.800781 260.421875 113.800781 261.683594 113.855469 C 263.707031 113.910156 265.621094 113.472656 267.429688 112.707031 C 270.492188 111.335938 273.667969 110.242188 276.839844 109.3125 C 280.125 108.328125 283.355469 107.066406 286.582031 105.917969 C 287.019531 105.753906 287.511719 105.535156 287.898438 105.261719 C 289.8125 104.003906 291.890625 103.128906 293.972656 102.199219 C 297.089844 100.773438 300.265625 99.40625 303.492188 98.257812 C 305.847656 97.4375 308.199219 96.835938 310.609375 96.285156 C 314.4375 95.355469 318.269531 94.535156 322.101562 93.605469 C 326.699219 92.511719 331.296875 91.417969 335.890625 90.265625 C 336.441406 90.101562 337.042969 90.046875 337.644531 89.992188 C 341.859375 89.554688 346.453125 89.445312 350.339844 89.773438 C 352.585938 89.992188 354.828125 90.265625 357.015625 90.980469 C 357.507812 91.144531 358.003906 91.253906 358.441406 91.417969 C 361.285156 92.785156 364.078125 94.261719 366.59375 96.121094 C 368.894531 97.820312 370.425781 100.117188 371.683594 102.582031 C 372.613281 104.441406 373.378906 106.355469 373.980469 108.328125 C 374.914062 111.390625 374.96875 114.566406 374.421875 117.683594 C 373.925781 120.695312 373.214844 123.707031 372.121094 126.550781 C 371.847656 127.207031 371.574219 127.808594 371.246094 128.410156 C 369.988281 130.546875 368.5625 132.515625 366.8125 134.269531 C 366.265625 134.816406 365.664062 135.363281 365.007812 135.800781 C 362.269531 137.550781 359.863281 139.742188 357.234375 141.65625 C 356.25 142.367188 355.320312 143.023438 354.28125 143.570312 C 352.144531 144.609375 350.011719 145.652344 348.097656 147.019531 C 347.605469 147.347656 347.164062 147.730469 346.671875 148.113281 C 346.507812 148.222656 346.398438 148.386719 346.234375 148.496094 C 344.375 150.191406 342.132812 151.179688 339.667969 151.5625 C 337.042969 152 334.46875 152.710938 332.007812 153.640625 C 330.746094 154.132812 329.378906 154.460938 328.066406 154.898438 C 327.519531 155.0625 326.917969 155.28125 326.425781 155.554688 C 325.21875 156.269531 323.90625 156.597656 322.539062 156.980469 C 322.265625 157.035156 321.9375 157.089844 321.664062 157.089844 C 316.300781 156.816406 313.070312 157.910156 308.527344 159.769531 C 308.417969 159.824219 308.363281 159.824219 308.253906 159.878906 C 307.160156 160.535156 306.230469 161.414062 305.027344 161.851562 C 303.929688 162.234375 303 163 302.015625 163.65625 C 301.523438 163.984375 301.140625 164.421875 300.8125 164.914062 C 300.101562 165.898438 299.171875 166.613281 298.238281 167.269531 C 296.652344 168.417969 295.121094 169.675781 293.589844 170.933594 C 293.039062 171.371094 292.546875 171.863281 292 172.304688 C 288.882812 174.765625 288.773438 174.929688 286.636719 178.488281 C 284.941406 181.332031 283.027344 184.125 281.109375 186.859375 C 280.070312 188.339844 279.085938 189.761719 277.828125 191.019531 C 277.28125 191.566406 276.894531 192.277344 276.566406 192.988281 C 274.816406 196.4375 272.792969 199.667969 270.765625 202.949219 C 268.632812 206.398438 266.828125 210.011719 265.402344 213.785156 C 265.128906 214.441406 264.855469 215.152344 264.910156 215.757812 C 265.074219 217.015625 264.691406 218.109375 264.199219 219.148438 C 263.652344 220.40625 263.050781 221.613281 262.832031 222.980469 C 262.777344 223.472656 262.449219 223.910156 262.285156 224.347656 C 262.066406 224.785156 261.792969 225.222656 261.683594 225.660156 C 261.300781 226.976562 260.585938 228.179688 259.984375 229.382812 C 259.65625 229.984375 259.4375 230.640625 259.054688 231.242188 C 258.179688 232.777344 257.578125 234.472656 256.429688 235.839844 C 256.046875 236.277344 255.882812 236.882812 255.664062 237.429688 C 255.058594 238.851562 254.457031 240.328125 253.308594 241.476562 C 253.089844 241.695312 252.980469 241.96875 252.871094 242.242188 C 251.832031 244.488281 250.738281 246.675781 249.75 248.921875 C 249.3125 249.90625 249.09375 251 248.820312 252.039062 C 248.65625 252.53125 248.328125 252.914062 247.835938 253.023438 C 246.195312 253.355469 245.375 254.558594 244.554688 255.761719 C 243.347656 257.566406 242.144531 259.320312 240.394531 260.6875 C 239.464844 262.492188 237.4375 262.820312 235.960938 263.972656 C 234.15625 264.628906 232.675781 265.777344 231.199219 266.925781 C 229.996094 267.855469 228.792969 268.621094 227.476562 269.277344 C 226.65625 269.664062 225.945312 270.15625 225.125 270.539062 C 223.8125 271.195312 222.496094 271.90625 221.128906 272.398438 C 218.832031 273.273438 216.476562 274.039062 214.34375 275.246094 C 213.90625 275.464844 213.46875 275.683594 212.976562 275.792969 C 210.894531 276.285156 208.816406 276.941406 206.683594 277.269531 C 204.382812 277.597656 202.085938 278.308594 199.675781 278.035156 C 197.652344 278.308594 195.570312 278.199219 193.492188 278.527344 C 192.34375 278.691406 191.140625 278.636719 189.933594 278.636719 C 189.058594 278.636719 188.183594 278.636719 187.253906 278.527344 C 185.613281 278.363281 183.914062 278.527344 182.273438 278.199219 C 178.003906 277.324219 173.789062 276.339844 169.796875 274.753906 C 169.523438 274.644531 169.25 274.53125 168.976562 274.367188 C 167.496094 273.546875 165.964844 272.945312 164.378906 272.398438 C 162.132812 271.632812 160 270.703125 158.085938 269.28125 C 156.167969 267.855469 154.308594 266.433594 152.390625 265.066406 C 149.054688 262.710938 146.316406 259.757812 143.636719 256.746094 C 142.433594 255.433594 141.445312 253.957031 140.570312 252.421875 C 138.65625 249.085938 136.632812 245.800781 134.496094 242.628906 C 133.457031 241.039062 132.636719 239.398438 131.980469 237.648438 C 130.9375 234.855469 129.898438 232.121094 128.914062 229.328125 C 128.367188 227.742188 128.09375 226.101562 127.820312 224.457031 C 127.273438 220.738281 126.890625 217.015625 126.78125 213.292969 C 126.726562 211.816406 126.5625 210.339844 126.507812 208.859375 C 126.453125 208.09375 126.453125 207.273438 126.507812 206.507812 C 126.5625 205.140625 126.617188 203.769531 126.78125 202.402344 C 127.328125 198.40625 127.984375 194.414062 128.53125 190.417969 C 128.695312 189.269531 128.804688 188.0625 129.078125 186.914062 C 129.570312 184.78125 130.117188 182.699219 130.71875 180.621094 C 131.160156 179.199219 131.652344 177.832031 132.472656 176.570312 C 133.292969 175.257812 133.839844 173.78125 134.332031 172.25 C 134.660156 171.316406 135.042969 170.441406 135.480469 169.566406 C 136.6875 167.105469 137.945312 164.640625 139.203125 162.179688 C 139.476562 161.632812 139.695312 161.140625 139.914062 160.589844 C 141.335938 156.980469 143.527344 153.804688 146.042969 150.90625 C 147.90625 148.769531 149.929688 146.746094 152.28125 145.050781 C 152.996094 144.5 153.707031 143.953125 154.144531 143.1875 C 154.199219 143.078125 154.253906 143.023438 154.308594 142.96875 C 156.878906 140.507812 159.015625 137.660156 161.3125 134.980469 C 164.707031 131.148438 168.097656 127.316406 171.4375 123.433594 C 172.257812 122.445312 173.078125 121.460938 173.734375 120.367188 C 175.214844 118.070312 176.636719 115.714844 178.058594 113.308594 C 178.878906 111.882812 179.480469 110.296875 179.976562 108.710938 C 180.960938 105.535156 182 102.308594 182.984375 99.132812 C 183.640625 97.164062 184.078125 95.136719 184.351562 93.113281 C 184.515625 91.855469 184.789062 90.59375 184.84375 89.335938 C 184.953125 87.75 184.953125 86.21875 184.898438 84.628906 C 184.84375 83.371094 184.679688 82.058594 184.460938 80.800781 C 184.351562 79.921875 184.078125 79.046875 183.859375 78.226562 C 183.476562 76.96875 183.3125 75.710938 183.203125 74.449219 C 183.039062 72.589844 182.929688 70.730469 182.820312 68.867188 C 182.765625 67.390625 182.492188 65.914062 182.164062 64.492188 C 181.835938 63.175781 181.5625 61.808594 181.234375 60.441406 C 180.359375 57.046875 180.796875 53.820312 181.890625 50.535156 C 182.273438 49.332031 182.710938 48.128906 183.257812 46.976562 C 184.351562 44.570312 185.394531 42.105469 186.324219 39.644531 C 186.925781 37.949219 187.910156 36.46875 189.332031 35.320312 C 189.933594 34.828125 190.539062 34.28125 191.140625 33.789062 C 192.890625 32.367188 194.695312 30.996094 196.449219 29.574219 C 196.777344 29.355469 197.050781 29.027344 197.269531 28.753906 C 199.019531 26.839844 201.097656 25.359375 203.234375 23.9375 C 203.453125 23.773438 203.78125 23.664062 204 23.5 C 206.738281 21.367188 209.855469 19.886719 212.867188 18.246094 C 213.632812 17.808594 214.453125 17.535156 215.273438 17.207031 C 216.640625 16.660156 218.066406 16.222656 219.433594 15.675781 C 220.746094 15.179688 222.003906 14.851562 223.375 14.578125 C 225.179688 14.25 227.039062 13.867188 228.847656 13.59375 C 229.230469 13.539062 229.613281 13.320312 229.832031 13.046875 C 230.488281 12.390625 231.253906 12.007812 232.074219 11.625 C 234.046875 10.695312 236.125 10.148438 238.257812 9.707031 C 239.683594 9.433594 241.160156 9.214844 242.636719 8.996094 C 245.8125 8.503906 248.929688 8.613281 251.996094 9.378906 C 252.925781 9.597656 253.910156 9.707031 254.894531 9.761719 C 256.210938 9.820312 257.414062 10.257812 258.507812 10.914062 C 260.695312 12.226562 262.722656 13.867188 264.472656 15.730469 C 266.992188 18.355469 268.304688 21.640625 268.632812 25.304688 C 269.015625 29.792969 267.976562 33.898438 265.730469 37.730469 C 265.347656 38.386719 264.910156 39.042969 264.527344 39.753906 C 264.035156 40.738281 263.433594 41.613281 262.667969 42.382812 C 262.011719 43.09375 261.410156 43.914062 260.808594 44.679688 C 260.53125 44.953125 260.203125 45.390625 259.929688 45.390625 C 258.726562 45.390625 258.234375 46.265625 257.742188 47.140625 C 256.8125 48.675781 255.664062 49.988281 254.511719 51.355469 C 253.089844 52.996094 251.394531 54.367188 249.640625 55.625 C 247.453125 57.210938 245.648438 59.074219 244.003906 61.207031 C 243.074219 62.464844 242.035156 63.667969 241.050781 64.875 C 239.957031 66.132812 238.914062 67.445312 238.09375 68.921875 C 237.929688 69.195312 237.765625 69.417969 237.601562 69.691406 C 235.851562 71.933594 234.101562 74.175781 232.402344 76.476562 C 231.144531 78.226562 229.996094 80.03125 228.792969 81.839844 C 228.246094 82.660156 227.695312 83.480469 227.09375 84.246094 C 225.945312 85.835938 224.796875 87.476562 223.921875 89.226562 C 222.332031 92.457031 221.566406 95.902344 222.003906 99.515625 C 222.332031 101.871094 223.265625 104.058594 225.125 105.699219 C 227.3125 107.671875 229.777344 109.367188 232.347656 110.789062 C 232.785156 111.007812 233.277344 111.171875 233.71875 111.28125 C 235.632812 111.664062 237.601562 112.15625 239.519531 112.265625 C 241.980469 112.429688 244.386719 112.816406 246.851562 113.144531 C 248.710938 113.417969 250.574219 113.582031 252.433594 113.746094 C 254.183594 113.910156 255.992188 113.855469 257.742188 113.910156 C 257.851562 113.746094 257.851562 113.746094 257.851562 113.800781 Z M 158.03125 151.398438 C 157.480469 152.328125 157.152344 153.148438 156.605469 153.804688 C 155.730469 155.007812 154.746094 156.105469 153.816406 157.253906 C 153.652344 157.472656 153.433594 157.746094 153.160156 157.800781 C 151.898438 158.292969 151.242188 159.441406 150.203125 160.207031 C 149.109375 161.027344 148.78125 162.289062 148.179688 163.4375 C 147.082031 165.515625 145.878906 167.542969 145.113281 169.839844 C 144.949219 170.386719 144.621094 170.933594 144.347656 171.425781 C 143.527344 172.90625 143.308594 174.601562 142.597656 176.132812 C 142.597656 177.335938 142.050781 178.433594 141.664062 179.527344 C 141.171875 181.003906 140.625 182.535156 140.570312 184.125 C 140.515625 185.4375 140.242188 186.695312 139.75 187.84375 C 139.3125 188.996094 139.148438 190.144531 139.203125 191.292969 C 139.203125 192.058594 139.148438 192.878906 139.09375 193.644531 C 139.09375 194.25 139.039062 194.851562 139.148438 195.398438 C 139.640625 197.75 139.585938 200.105469 139.203125 202.457031 C 139.09375 203.113281 138.929688 203.824219 138.875 204.484375 C 138.820312 204.976562 138.820312 205.46875 138.820312 205.90625 C 138.875 206.671875 139.039062 207.4375 139.148438 208.257812 C 139.367188 209.789062 139.585938 211.378906 139.859375 212.910156 C 140.132812 214.441406 140.570312 215.976562 140.898438 217.507812 C 141.28125 219.148438 141.445312 220.792969 141.777344 222.433594 C 142.160156 224.566406 142.871094 226.648438 143.582031 228.671875 C 143.910156 229.492188 144.238281 230.3125 144.566406 231.132812 C 145.222656 232.996094 145.824219 234.855469 146.371094 236.714844 C 146.863281 238.46875 147.6875 240 148.726562 241.476562 C 149.820312 243.121094 150.859375 244.761719 152.171875 246.238281 C 153.488281 247.71875 154.527344 249.414062 155.785156 250.890625 C 156.660156 251.929688 157.644531 252.914062 158.578125 253.902344 C 161.148438 256.417969 164.105469 258.332031 167.113281 260.195312 C 167.878906 260.6875 168.644531 261.125 169.46875 261.398438 C 173.023438 262.765625 176.636719 264.191406 180.25 265.503906 C 183.257812 266.542969 186.324219 267.199219 189.496094 267.089844 C 190.207031 267.089844 190.867188 267.089844 191.578125 267.199219 C 194.09375 267.636719 196.667969 267.746094 199.238281 267.800781 C 200.824219 267.855469 202.359375 267.746094 203.945312 267.363281 C 206.078125 266.871094 208.214844 266.488281 210.292969 266.050781 C 214.78125 265.121094 218.996094 263.53125 223.046875 261.453125 C 227.476562 259.15625 231.363281 256.199219 234.101562 251.929688 C 234.375 251.492188 234.703125 251.164062 234.976562 250.78125 C 235.742188 249.742188 236.34375 248.648438 236.78125 247.441406 C 237.710938 245.089844 238.804688 242.738281 239.792969 240.382812 C 240.449219 238.960938 241.160156 237.539062 241.707031 236.058594 C 242.527344 233.652344 243.566406 231.296875 244.9375 229.109375 C 245.8125 227.6875 246.632812 226.210938 247.070312 224.566406 C 247.835938 221.613281 248.984375 218.765625 250.246094 216.03125 C 251.230469 213.894531 252.269531 211.707031 254.238281 210.285156 C 254.839844 209.847656 255.113281 209.242188 255.335938 208.585938 C 256.101562 206.453125 256.921875 204.371094 257.6875 202.238281 C 258.726562 199.121094 260.3125 196.328125 262.175781 193.589844 C 262.613281 192.933594 263.105469 192.332031 263.597656 191.730469 C 264.199219 191.019531 264.089844 190.035156 264.527344 189.269531 C 265.621094 187.40625 266.71875 185.546875 268.03125 183.796875 C 269.398438 181.988281 270.765625 180.183594 272.136719 178.378906 C 273.394531 176.625 274.652344 174.820312 275.855469 173.070312 C 276.566406 172.03125 277.28125 170.988281 277.992188 169.894531 C 279.304688 167.816406 281.273438 166.226562 283.246094 164.75 C 285.050781 163.382812 286.910156 162.125 288.882812 160.917969 C 290.90625 159.714844 292.929688 158.457031 295.121094 157.582031 C 296.925781 156.871094 298.734375 155.996094 300.320312 154.789062 C 300.703125 154.515625 301.140625 154.242188 301.578125 154.023438 C 305.027344 152.601562 308.472656 151.125 312.140625 150.300781 C 315.589844 149.535156 318.980469 148.550781 322.265625 147.128906 C 326.152344 145.433594 330.199219 144.117188 334.304688 143.132812 C 335.617188 142.804688 336.988281 142.421875 338.300781 142.148438 C 339.285156 141.929688 340.160156 141.546875 340.980469 141 C 343.117188 139.578125 345.414062 138.371094 347.824219 137.605469 C 350.121094 136.894531 352.035156 135.527344 353.84375 133.992188 C 354.390625 133.554688 354.882812 133.117188 355.484375 132.734375 C 358.222656 131.09375 360.355469 128.796875 362.160156 126.167969 C 363.144531 124.746094 363.859375 123.265625 364.296875 121.625 C 364.953125 119.164062 365.554688 116.644531 366.101562 114.183594 C 366.429688 112.652344 366.375 111.0625 366.046875 109.476562 C 365.828125 108.492188 365.554688 107.5625 365.390625 106.574219 C 365.117188 105.097656 364.40625 103.785156 363.695312 102.527344 C 362.980469 101.265625 361.996094 100.390625 360.738281 99.679688 C 359.863281 99.1875 358.988281 98.804688 358.167969 98.257812 C 357.015625 97.492188 355.757812 96.945312 354.390625 96.617188 C 351.597656 95.902344 348.808594 95.519531 345.960938 95.464844 C 344.8125 95.464844 343.609375 95.300781 342.460938 95.738281 C 342.132812 95.847656 341.691406 95.792969 341.308594 95.847656 C 339.066406 95.957031 336.824219 96.339844 334.578125 96.339844 C 333.921875 96.339844 333.210938 96.5625 332.554688 96.671875 C 327.082031 97.546875 321.828125 99.242188 316.464844 100.5 C 314.328125 100.992188 312.25 101.539062 310.117188 101.871094 C 308.691406 102.089844 307.488281 102.582031 306.339844 103.457031 C 305.574219 104.058594 304.808594 104.660156 304.042969 105.316406 C 303.492188 105.753906 302.890625 106.136719 302.234375 106.246094 C 300.8125 106.410156 299.609375 107.066406 298.402344 107.726562 C 296.324219 108.820312 294.246094 109.96875 292 110.679688 C 291.234375 110.898438 290.523438 111.226562 290.359375 112.210938 C 290.304688 112.429688 289.976562 112.652344 289.757812 112.761719 C 288.773438 113.199219 287.730469 113.527344 286.746094 113.910156 C 286.035156 114.183594 285.214844 114.347656 284.558594 114.730469 C 281.820312 116.207031 278.921875 116.972656 275.910156 117.628906 C 274.652344 117.902344 273.449219 118.234375 272.300781 118.890625 C 270.929688 119.65625 269.453125 120.203125 267.921875 120.585938 C 265.894531 121.078125 263.925781 121.679688 261.902344 121.953125 C 260.421875 122.171875 259 122.609375 257.578125 122.882812 C 256.210938 123.15625 254.839844 123.320312 253.472656 123.488281 C 252.214844 123.652344 250.957031 123.925781 249.640625 123.925781 C 248.21875 123.925781 247.015625 124.746094 245.648438 124.964844 C 245.375 125.019531 245.046875 125.019531 244.773438 125.019531 C 243.511719 125.074219 242.199219 125.128906 240.941406 125.128906 C 237.984375 125.128906 235.03125 124.800781 232.074219 124.527344 C 230.214844 124.363281 228.355469 124.035156 226.710938 123.101562 C 226.21875 122.828125 225.617188 122.609375 225.070312 122.390625 C 222.769531 121.515625 220.910156 120.09375 219.542969 118.125 C 217.957031 115.878906 216.421875 113.582031 214.945312 111.226562 C 214.289062 110.242188 213.851562 109.148438 213.359375 108.054688 C 212.921875 107.066406 212.59375 106.027344 212.210938 105.042969 C 211.332031 102.746094 211.277344 100.445312 211.769531 98.039062 C 212.042969 96.617188 212.429688 95.136719 212.703125 93.714844 C 212.867188 92.839844 212.976562 91.964844 213.195312 91.089844 C 213.742188 88.789062 214.671875 86.65625 216.3125 84.792969 C 217.847656 83.097656 219.269531 81.347656 220.363281 79.375 C 221.128906 78.0625 221.949219 76.859375 222.878906 75.765625 C 224.414062 73.847656 225.78125 71.769531 227.203125 69.800781 C 228.296875 68.320312 229.394531 66.789062 230.597656 65.3125 C 232.457031 63.011719 234.539062 60.878906 236.179688 58.46875 C 236.507812 57.976562 236.945312 57.539062 237.328125 57.15625 C 239.246094 55.1875 241.269531 53.328125 243.566406 51.738281 C 247.34375 49.058594 250.410156 45.828125 252.433594 41.613281 C 253.035156 40.355469 253.800781 39.207031 254.730469 38.222656 C 256.429688 36.414062 257.578125 34.226562 258.726562 32.039062 C 259.601562 30.394531 259.984375 28.753906 259.492188 26.894531 C 259.328125 26.347656 259.328125 25.742188 259.273438 25.140625 C 259 23.226562 258.34375 21.53125 256.59375 20.488281 C 256.484375 20.433594 256.429688 20.378906 256.375 20.269531 C 255.609375 19.394531 254.621094 19.066406 253.472656 19.066406 C 252.707031 19.066406 251.886719 19.121094 251.175781 18.792969 C 249.640625 18.082031 247.945312 17.917969 246.359375 17.480469 C 244.992188 17.097656 243.675781 16.988281 242.308594 17.261719 C 241.542969 17.425781 240.722656 17.480469 240.011719 17.753906 C 239.136719 18.027344 238.257812 18.191406 237.4375 17.808594 C 236.5625 17.425781 235.6875 17.480469 234.8125 17.644531 C 232.621094 18.191406 230.378906 18.464844 228.132812 18.847656 C 227.148438 19.011719 226.21875 19.230469 225.398438 19.722656 C 224.304688 20.378906 223.101562 20.875 221.839844 21.09375 C 220.746094 21.257812 219.761719 21.75 218.886719 22.351562 C 217.574219 23.28125 216.203125 23.9375 214.726562 24.59375 C 213.90625 24.976562 213.085938 25.359375 212.429688 25.90625 C 210.675781 27.332031 208.707031 28.480469 206.902344 29.847656 C 205.96875 30.558594 204.984375 31.214844 203.945312 31.765625 C 202.140625 32.75 200.441406 33.953125 198.800781 35.210938 C 196.339844 37.074219 194.53125 39.535156 193.328125 42.382812 C 192.890625 44.515625 191.742188 46.375 191.085938 48.457031 C 190.371094 50.699219 189.660156 52.941406 189.714844 55.351562 C 189.714844 56.117188 189.660156 56.9375 189.496094 57.703125 C 189.277344 58.582031 189.277344 59.457031 189.550781 60.332031 C 189.824219 61.207031 189.933594 62.082031 190.097656 62.902344 C 190.425781 64.4375 190.757812 65.96875 190.8125 67.554688 C 190.867188 69.417969 191.03125 71.277344 191.140625 73.136719 C 191.195312 74.121094 191.414062 75.054688 191.6875 76.039062 C 192.726562 79.539062 193.4375 83.097656 193.929688 86.710938 C 194.53125 91.363281 194.203125 95.957031 192.070312 100.28125 C 191.796875 100.828125 191.578125 101.375 191.414062 101.925781 C 191.085938 103.183594 190.59375 104.332031 190.097656 105.535156 C 189.878906 105.972656 189.714844 106.464844 189.660156 106.902344 C 189.550781 108.984375 188.785156 110.953125 188.074219 112.871094 C 187.582031 114.183594 187.089844 115.496094 186.378906 116.644531 C 184.570312 119.601562 182.65625 122.445312 180.742188 125.292969 C 180.304688 125.949219 179.867188 126.605469 179.316406 127.207031 C 177.785156 128.851562 176.363281 130.601562 174.886719 132.351562 C 173.789062 133.609375 172.695312 134.925781 171.546875 136.074219 C 170.945312 136.730469 170.398438 137.386719 169.90625 138.152344 C 168.808594 140.125 167.386719 141.875 165.855469 143.570312 C 164.050781 145.542969 162.296875 147.511719 160.492188 149.480469 C 160.109375 149.917969 159.5625 150.191406 159.070312 150.523438 C 158.742188 151.125 158.304688 151.289062 158.03125 151.398438 Z M 158.03125 151.398438 " fill-opacity="1" fill-rule="nonzero"/></g></svg>